<mxfile host="app.diagrams.net" modified="2021-10-20T18:02:32.469Z" agent="5.0 (Windows NT 10.0; Win64; x64) AppleWebKit/537.36 (KHTML, like Gecko) Chrome/94.0.4606.81 Safari/537.36" etag="GrsWLmMRFTNCqjCLOIzW" version="15.5.6" type="github">
  <diagram id="OfaU-4QBQ7z74oPHC75n" name="Page-1">
    <mxGraphModel dx="1240" dy="709" grid="1" gridSize="10" guides="1" tooltips="1" connect="1" arrows="1" fold="1" page="1" pageScale="1" pageWidth="1169" pageHeight="827" math="0" shadow="0">
      <root>
        <mxCell id="0" />
        <mxCell id="1" parent="0" />
        <mxCell id="XUh88vk4pK_r7VHz1ewa-33" style="edgeStyle=orthogonalEdgeStyle;rounded=0;orthogonalLoop=1;jettySize=auto;html=1;exitX=0.75;exitY=0;exitDx=0;exitDy=0;entryX=0.5;entryY=1;entryDx=0;entryDy=0;endArrow=none;endFill=0;" edge="1" parent="1" source="XUh88vk4pK_r7VHz1ewa-2" target="XUh88vk4pK_r7VHz1ewa-32">
          <mxGeometry relative="1" as="geometry" />
        </mxCell>
        <mxCell id="XUh88vk4pK_r7VHz1ewa-35" style="edgeStyle=orthogonalEdgeStyle;rounded=0;orthogonalLoop=1;jettySize=auto;html=1;exitX=0.137;exitY=-0.041;exitDx=0;exitDy=0;entryX=0.5;entryY=1;entryDx=0;entryDy=0;endArrow=none;endFill=0;exitPerimeter=0;" edge="1" parent="1" source="XUh88vk4pK_r7VHz1ewa-2" target="XUh88vk4pK_r7VHz1ewa-34">
          <mxGeometry relative="1" as="geometry">
            <Array as="points">
              <mxPoint x="404" y="190" />
              <mxPoint x="200" y="190" />
            </Array>
          </mxGeometry>
        </mxCell>
        <mxCell id="XUh88vk4pK_r7VHz1ewa-38" style="edgeStyle=orthogonalEdgeStyle;rounded=0;orthogonalLoop=1;jettySize=auto;html=1;exitX=0;exitY=0.25;exitDx=0;exitDy=0;entryX=1;entryY=0.5;entryDx=0;entryDy=0;endArrow=none;endFill=0;" edge="1" parent="1" source="XUh88vk4pK_r7VHz1ewa-2" target="XUh88vk4pK_r7VHz1ewa-37">
          <mxGeometry relative="1" as="geometry">
            <Array as="points">
              <mxPoint x="380" y="250" />
              <mxPoint x="380" y="210" />
            </Array>
          </mxGeometry>
        </mxCell>
        <mxCell id="XUh88vk4pK_r7VHz1ewa-2" value="Animal" style="whiteSpace=wrap;html=1;align=center;" vertex="1" parent="1">
          <mxGeometry x="390" y="240" width="100" height="40" as="geometry" />
        </mxCell>
        <mxCell id="XUh88vk4pK_r7VHz1ewa-24" style="edgeStyle=orthogonalEdgeStyle;rounded=0;orthogonalLoop=1;jettySize=auto;html=1;exitX=0;exitY=0.5;exitDx=0;exitDy=0;entryX=1;entryY=0;entryDx=0;entryDy=0;endArrow=none;endFill=0;" edge="1" parent="1" source="XUh88vk4pK_r7VHz1ewa-3" target="XUh88vk4pK_r7VHz1ewa-2">
          <mxGeometry relative="1" as="geometry" />
        </mxCell>
        <mxCell id="XUh88vk4pK_r7VHz1ewa-3" value="Nome" style="ellipse;whiteSpace=wrap;html=1;align=center;" vertex="1" parent="1">
          <mxGeometry x="585" y="180" width="100" height="40" as="geometry" />
        </mxCell>
        <mxCell id="XUh88vk4pK_r7VHz1ewa-13" style="edgeStyle=orthogonalEdgeStyle;rounded=0;orthogonalLoop=1;jettySize=auto;html=1;exitX=0.5;exitY=1;exitDx=0;exitDy=0;entryX=0.5;entryY=0;entryDx=0;entryDy=0;endArrow=none;endFill=0;" edge="1" parent="1" source="XUh88vk4pK_r7VHz1ewa-4" target="XUh88vk4pK_r7VHz1ewa-7">
          <mxGeometry relative="1" as="geometry" />
        </mxCell>
        <mxCell id="XUh88vk4pK_r7VHz1ewa-18" value="(1,N)" style="edgeLabel;html=1;align=center;verticalAlign=middle;resizable=0;points=[];" vertex="1" connectable="0" parent="XUh88vk4pK_r7VHz1ewa-13">
          <mxGeometry x="-0.7397" y="-1" relative="1" as="geometry">
            <mxPoint as="offset" />
          </mxGeometry>
        </mxCell>
        <mxCell id="XUh88vk4pK_r7VHz1ewa-19" value="(1,1)" style="edgeLabel;html=1;align=center;verticalAlign=middle;resizable=0;points=[];" vertex="1" connectable="0" parent="XUh88vk4pK_r7VHz1ewa-13">
          <mxGeometry x="0.7365" relative="1" as="geometry">
            <mxPoint as="offset" />
          </mxGeometry>
        </mxCell>
        <mxCell id="XUh88vk4pK_r7VHz1ewa-14" style="edgeStyle=orthogonalEdgeStyle;rounded=0;orthogonalLoop=1;jettySize=auto;html=1;exitX=0.5;exitY=0;exitDx=0;exitDy=0;entryX=0.5;entryY=1;entryDx=0;entryDy=0;endArrow=none;endFill=0;" edge="1" parent="1" source="XUh88vk4pK_r7VHz1ewa-4" target="XUh88vk4pK_r7VHz1ewa-2">
          <mxGeometry relative="1" as="geometry" />
        </mxCell>
        <mxCell id="XUh88vk4pK_r7VHz1ewa-16" value="(1,N)" style="edgeLabel;html=1;align=center;verticalAlign=middle;resizable=0;points=[];" vertex="1" connectable="0" parent="XUh88vk4pK_r7VHz1ewa-14">
          <mxGeometry x="-0.7048" y="1" relative="1" as="geometry">
            <mxPoint as="offset" />
          </mxGeometry>
        </mxCell>
        <mxCell id="XUh88vk4pK_r7VHz1ewa-17" value="(1,1)" style="edgeLabel;html=1;align=center;verticalAlign=middle;resizable=0;points=[];" vertex="1" connectable="0" parent="XUh88vk4pK_r7VHz1ewa-14">
          <mxGeometry x="0.7079" y="2" relative="1" as="geometry">
            <mxPoint as="offset" />
          </mxGeometry>
        </mxCell>
        <mxCell id="XUh88vk4pK_r7VHz1ewa-21" style="edgeStyle=orthogonalEdgeStyle;rounded=0;orthogonalLoop=1;jettySize=auto;html=1;exitX=1;exitY=0.5;exitDx=0;exitDy=0;entryX=0;entryY=0.5;entryDx=0;entryDy=0;endArrow=none;endFill=0;" edge="1" parent="1" source="XUh88vk4pK_r7VHz1ewa-4" target="XUh88vk4pK_r7VHz1ewa-20">
          <mxGeometry relative="1" as="geometry" />
        </mxCell>
        <mxCell id="XUh88vk4pK_r7VHz1ewa-60" style="edgeStyle=orthogonalEdgeStyle;rounded=0;orthogonalLoop=1;jettySize=auto;html=1;exitX=1;exitY=0.25;exitDx=0;exitDy=0;entryX=0.5;entryY=1;entryDx=0;entryDy=0;endArrow=none;endFill=0;" edge="1" parent="1" source="XUh88vk4pK_r7VHz1ewa-4" target="XUh88vk4pK_r7VHz1ewa-22">
          <mxGeometry relative="1" as="geometry" />
        </mxCell>
        <mxCell id="XUh88vk4pK_r7VHz1ewa-4" value="Qual" style="shape=associativeEntity;whiteSpace=wrap;html=1;align=center;" vertex="1" parent="1">
          <mxGeometry x="370" y="340" width="140" height="60" as="geometry" />
        </mxCell>
        <mxCell id="XUh88vk4pK_r7VHz1ewa-8" style="edgeStyle=orthogonalEdgeStyle;rounded=0;orthogonalLoop=1;jettySize=auto;html=1;exitX=1;exitY=0.5;exitDx=0;exitDy=0;endArrow=none;endFill=0;" edge="1" parent="1" source="XUh88vk4pK_r7VHz1ewa-6" target="XUh88vk4pK_r7VHz1ewa-2">
          <mxGeometry relative="1" as="geometry" />
        </mxCell>
        <mxCell id="XUh88vk4pK_r7VHz1ewa-11" value="(1,1)" style="edgeLabel;html=1;align=center;verticalAlign=middle;resizable=0;points=[];" vertex="1" connectable="0" parent="XUh88vk4pK_r7VHz1ewa-8">
          <mxGeometry x="-0.6646" relative="1" as="geometry">
            <mxPoint as="offset" />
          </mxGeometry>
        </mxCell>
        <mxCell id="XUh88vk4pK_r7VHz1ewa-12" value="(1,N)" style="edgeLabel;html=1;align=center;verticalAlign=middle;resizable=0;points=[];" vertex="1" connectable="0" parent="XUh88vk4pK_r7VHz1ewa-8">
          <mxGeometry x="0.6688" y="-2" relative="1" as="geometry">
            <mxPoint y="-2" as="offset" />
          </mxGeometry>
        </mxCell>
        <mxCell id="XUh88vk4pK_r7VHz1ewa-44" style="edgeStyle=orthogonalEdgeStyle;rounded=0;orthogonalLoop=1;jettySize=auto;html=1;exitX=0;exitY=0.5;exitDx=0;exitDy=0;entryX=1;entryY=0.5;entryDx=0;entryDy=0;endArrow=none;endFill=0;" edge="1" parent="1" source="XUh88vk4pK_r7VHz1ewa-6" target="XUh88vk4pK_r7VHz1ewa-43">
          <mxGeometry relative="1" as="geometry" />
        </mxCell>
        <mxCell id="XUh88vk4pK_r7VHz1ewa-59" style="edgeStyle=orthogonalEdgeStyle;rounded=0;orthogonalLoop=1;jettySize=auto;html=1;exitX=0.5;exitY=1;exitDx=0;exitDy=0;entryX=0.5;entryY=0;entryDx=0;entryDy=0;endArrow=none;endFill=0;" edge="1" parent="1" source="XUh88vk4pK_r7VHz1ewa-6" target="XUh88vk4pK_r7VHz1ewa-58">
          <mxGeometry relative="1" as="geometry" />
        </mxCell>
        <mxCell id="XUh88vk4pK_r7VHz1ewa-6" value="Clientes" style="whiteSpace=wrap;html=1;align=center;" vertex="1" parent="1">
          <mxGeometry x="200" y="240" width="100" height="40" as="geometry" />
        </mxCell>
        <mxCell id="XUh88vk4pK_r7VHz1ewa-47" style="edgeStyle=orthogonalEdgeStyle;rounded=0;orthogonalLoop=1;jettySize=auto;html=1;exitX=1;exitY=0.5;exitDx=0;exitDy=0;entryX=0;entryY=0.5;entryDx=0;entryDy=0;endArrow=none;endFill=0;" edge="1" parent="1" source="XUh88vk4pK_r7VHz1ewa-7" target="XUh88vk4pK_r7VHz1ewa-46">
          <mxGeometry relative="1" as="geometry" />
        </mxCell>
        <mxCell id="XUh88vk4pK_r7VHz1ewa-49" style="edgeStyle=orthogonalEdgeStyle;rounded=0;orthogonalLoop=1;jettySize=auto;html=1;exitX=0.75;exitY=1;exitDx=0;exitDy=0;entryX=0.5;entryY=0;entryDx=0;entryDy=0;endArrow=none;endFill=0;" edge="1" parent="1" source="XUh88vk4pK_r7VHz1ewa-7" target="XUh88vk4pK_r7VHz1ewa-48">
          <mxGeometry relative="1" as="geometry" />
        </mxCell>
        <mxCell id="XUh88vk4pK_r7VHz1ewa-54" style="edgeStyle=orthogonalEdgeStyle;rounded=0;orthogonalLoop=1;jettySize=auto;html=1;exitX=0.25;exitY=1;exitDx=0;exitDy=0;entryX=0.5;entryY=0;entryDx=0;entryDy=0;endArrow=none;endFill=0;" edge="1" parent="1" source="XUh88vk4pK_r7VHz1ewa-7" target="XUh88vk4pK_r7VHz1ewa-53">
          <mxGeometry relative="1" as="geometry">
            <Array as="points">
              <mxPoint x="415" y="530" />
              <mxPoint x="290" y="530" />
            </Array>
          </mxGeometry>
        </mxCell>
        <mxCell id="XUh88vk4pK_r7VHz1ewa-7" value="Vacinas" style="whiteSpace=wrap;html=1;align=center;" vertex="1" parent="1">
          <mxGeometry x="390" y="460" width="100" height="40" as="geometry" />
        </mxCell>
        <mxCell id="XUh88vk4pK_r7VHz1ewa-20" value="Registro_de_data" style="ellipse;whiteSpace=wrap;html=1;align=center;" vertex="1" parent="1">
          <mxGeometry x="585" y="350" width="100" height="40" as="geometry" />
        </mxCell>
        <mxCell id="XUh88vk4pK_r7VHz1ewa-22" value="Proxima_Vacina" style="ellipse;whiteSpace=wrap;html=1;align=center;" vertex="1" parent="1">
          <mxGeometry x="510" y="260" width="100" height="40" as="geometry" />
        </mxCell>
        <mxCell id="XUh88vk4pK_r7VHz1ewa-26" style="edgeStyle=orthogonalEdgeStyle;rounded=0;orthogonalLoop=1;jettySize=auto;html=1;exitX=0.5;exitY=1;exitDx=0;exitDy=0;endArrow=none;endFill=0;entryX=0.25;entryY=0;entryDx=0;entryDy=0;" edge="1" parent="1" source="XUh88vk4pK_r7VHz1ewa-25" target="XUh88vk4pK_r7VHz1ewa-2">
          <mxGeometry relative="1" as="geometry">
            <mxPoint x="410" y="210" as="targetPoint" />
          </mxGeometry>
        </mxCell>
        <mxCell id="XUh88vk4pK_r7VHz1ewa-25" value="Sexo&lt;span style=&quot;color: rgba(0 , 0 , 0 , 0) ; font-family: monospace ; font-size: 0px&quot;&gt;%3CmxGraphModel%3E%3Croot%3E%3CmxCell%20id%3D%220%22%2F%3E%3CmxCell%20id%3D%221%22%20parent%3D%220%22%2F%3E%3CmxCell%20id%3D%222%22%20value%3D%22Attribute%22%20style%3D%22ellipse%3BwhiteSpace%3Dwrap%3Bhtml%3D1%3Balign%3Dcenter%3B%22%20vertex%3D%221%22%20parent%3D%221%22%3E%3CmxGeometry%20x%3D%22230%22%20y%3D%2290%22%20width%3D%22100%22%20height%3D%2240%22%20as%3D%22geometry%22%2F%3E%3C%2FmxCell%3E%3C%2Froot%3E%3C%2FmxGraphModel%3E&lt;/span&gt;" style="ellipse;whiteSpace=wrap;html=1;align=center;" vertex="1" parent="1">
          <mxGeometry x="260" y="50" width="100" height="40" as="geometry" />
        </mxCell>
        <mxCell id="XUh88vk4pK_r7VHz1ewa-28" style="edgeStyle=orthogonalEdgeStyle;rounded=0;orthogonalLoop=1;jettySize=auto;html=1;exitX=0.5;exitY=0;exitDx=0;exitDy=0;entryX=0.25;entryY=0;entryDx=0;entryDy=0;endArrow=none;endFill=0;" edge="1" parent="1" source="XUh88vk4pK_r7VHz1ewa-2" target="XUh88vk4pK_r7VHz1ewa-2">
          <mxGeometry relative="1" as="geometry" />
        </mxCell>
        <mxCell id="XUh88vk4pK_r7VHz1ewa-32" value="Espécie" style="ellipse;whiteSpace=wrap;html=1;align=center;" vertex="1" parent="1">
          <mxGeometry x="520" y="50" width="100" height="40" as="geometry" />
        </mxCell>
        <mxCell id="XUh88vk4pK_r7VHz1ewa-34" value="Raça" style="ellipse;whiteSpace=wrap;html=1;align=center;" vertex="1" parent="1">
          <mxGeometry x="150" y="50" width="100" height="40" as="geometry" />
        </mxCell>
        <mxCell id="XUh88vk4pK_r7VHz1ewa-37" value="&lt;u&gt;Número&lt;/u&gt;" style="ellipse;whiteSpace=wrap;html=1;align=center;" vertex="1" parent="1">
          <mxGeometry x="80" y="190" width="100" height="40" as="geometry" />
        </mxCell>
        <mxCell id="XUh88vk4pK_r7VHz1ewa-40" style="edgeStyle=orthogonalEdgeStyle;rounded=0;orthogonalLoop=1;jettySize=auto;html=1;exitX=0.5;exitY=1;exitDx=0;exitDy=0;endArrow=none;endFill=0;entryX=0.5;entryY=0;entryDx=0;entryDy=0;" edge="1" parent="1" source="XUh88vk4pK_r7VHz1ewa-39" target="XUh88vk4pK_r7VHz1ewa-2">
          <mxGeometry relative="1" as="geometry">
            <mxPoint x="430" y="240" as="targetPoint" />
          </mxGeometry>
        </mxCell>
        <mxCell id="XUh88vk4pK_r7VHz1ewa-39" value="Data_de_Nascimento" style="ellipse;whiteSpace=wrap;html=1;align=center;" vertex="1" parent="1">
          <mxGeometry x="380" y="40" width="120" height="60" as="geometry" />
        </mxCell>
        <mxCell id="XUh88vk4pK_r7VHz1ewa-42" style="edgeStyle=orthogonalEdgeStyle;rounded=0;orthogonalLoop=1;jettySize=auto;html=1;exitX=1;exitY=0.5;exitDx=0;exitDy=0;entryX=0;entryY=1;entryDx=0;entryDy=0;endArrow=none;endFill=0;" edge="1" parent="1" source="XUh88vk4pK_r7VHz1ewa-41" target="XUh88vk4pK_r7VHz1ewa-2">
          <mxGeometry relative="1" as="geometry">
            <Array as="points">
              <mxPoint x="180" y="390" />
              <mxPoint x="330" y="390" />
              <mxPoint x="330" y="280" />
            </Array>
          </mxGeometry>
        </mxCell>
        <mxCell id="XUh88vk4pK_r7VHz1ewa-41" value="Cor" style="ellipse;whiteSpace=wrap;html=1;align=center;" vertex="1" parent="1">
          <mxGeometry x="80" y="370" width="100" height="40" as="geometry" />
        </mxCell>
        <mxCell id="XUh88vk4pK_r7VHz1ewa-43" value="Endereço" style="ellipse;whiteSpace=wrap;html=1;align=center;" vertex="1" parent="1">
          <mxGeometry x="80" y="240" width="100" height="40" as="geometry" />
        </mxCell>
        <mxCell id="XUh88vk4pK_r7VHz1ewa-46" value="Lote" style="ellipse;whiteSpace=wrap;html=1;align=center;" vertex="1" parent="1">
          <mxGeometry x="585" y="460" width="100" height="40" as="geometry" />
        </mxCell>
        <mxCell id="XUh88vk4pK_r7VHz1ewa-48" value="&lt;u&gt;Número&lt;/u&gt;" style="ellipse;whiteSpace=wrap;html=1;align=center;" vertex="1" parent="1">
          <mxGeometry x="550" y="560" width="100" height="40" as="geometry" />
        </mxCell>
        <mxCell id="XUh88vk4pK_r7VHz1ewa-51" style="edgeStyle=orthogonalEdgeStyle;rounded=0;orthogonalLoop=1;jettySize=auto;html=1;exitX=1;exitY=0.5;exitDx=0;exitDy=0;entryX=0;entryY=0.5;entryDx=0;entryDy=0;endArrow=none;endFill=0;" edge="1" parent="1" source="XUh88vk4pK_r7VHz1ewa-50" target="XUh88vk4pK_r7VHz1ewa-7">
          <mxGeometry relative="1" as="geometry" />
        </mxCell>
        <mxCell id="XUh88vk4pK_r7VHz1ewa-50" value="Fabricante" style="ellipse;whiteSpace=wrap;html=1;align=center;" vertex="1" parent="1">
          <mxGeometry x="160" y="460" width="100" height="40" as="geometry" />
        </mxCell>
        <mxCell id="XUh88vk4pK_r7VHz1ewa-53" value="Nome" style="ellipse;whiteSpace=wrap;html=1;align=center;" vertex="1" parent="1">
          <mxGeometry x="240" y="570" width="100" height="40" as="geometry" />
        </mxCell>
        <mxCell id="XUh88vk4pK_r7VHz1ewa-58" value="&lt;u&gt;Número&lt;/u&gt;" style="ellipse;whiteSpace=wrap;html=1;align=center;" vertex="1" parent="1">
          <mxGeometry x="200" y="300" width="100" height="40" as="geometry" />
        </mxCell>
      </root>
    </mxGraphModel>
  </diagram>
</mxfile>
